<?xml version="1.0" encoding="utf-8" standalone="no"?>
<!DOCTYPE svg PUBLIC "-//W3C//DTD SVG 1.1//EN"
  "http://www.w3.org/Graphics/SVG/1.1/DTD/svg11.dtd">
<svg xmlns:xlink="http://www.w3.org/1999/xlink" width="1008pt" height="720pt" viewBox="0 0 1008 720" xmlns="http://www.w3.org/2000/svg" version="1.1">
 <metadata>
  <rdf:RDF xmlns:dc="http://purl.org/dc/elements/1.1/" xmlns:cc="http://creativecommons.org/ns#" xmlns:rdf="http://www.w3.org/1999/02/22-rdf-syntax-ns#">
   <cc:Work>
    <dc:type rdf:resource="http://purl.org/dc/dcmitype/StillImage"/>
    <dc:date>2025-08-01T18:46:28.818768</dc:date>
    <dc:format>image/svg+xml</dc:format>
    <dc:creator>
     <cc:Agent>
      <dc:title>Matplotlib v3.6.3, https://matplotlib.org/</dc:title>
     </cc:Agent>
    </dc:creator>
   </cc:Work>
  </rdf:RDF>
 </metadata>
 <defs>
  <style type="text/css">*{stroke-linejoin: round; stroke-linecap: butt}</style>
 </defs>
 <g id="figure_1">
  <g id="patch_1">
   <path d="M 0 720 
L 1008 720 
L 1008 0 
L 0 0 
z
" style="fill: #ffffff"/>
  </g>
  <g id="axes_1">
   <g id="patch_2">
    <path d="M 463.557145 387.458508 
Q 370.987687 471.772469 279.244797 555.333577 
" clip-path="url(#p954a9dfe67)" style="fill: none; stroke: #808080; stroke-linecap: round"/>
    <path d="M 283.548757 554.118698 
L 279.244797 555.333577 
L 280.85527 551.161481 
" clip-path="url(#p954a9dfe67)" style="fill: none; stroke: #808080; stroke-linecap: round"/>
   </g>
   <g id="patch_3">
    <path d="M 463.162078 376.257318 
Q 356.409375 291.866367 250.533748 208.168768 
" clip-path="url(#p954a9dfe67)" style="fill: none; stroke: #808080; stroke-linecap: round"/>
    <path d="M 252.431363 212.218343 
L 250.533748 208.168768 
L 254.911977 209.080421 
" clip-path="url(#p954a9dfe67)" style="fill: none; stroke: #808080; stroke-linecap: round"/>
   </g>
   <g id="patch_4">
    <path d="M 472.706066 389.844744 
Q 505.266299 487.162061 537.471792 583.419115 
" clip-path="url(#p954a9dfe67)" style="fill: none; stroke: #808080; stroke-linecap: round"/>
    <path d="M 538.09929 578.991221 
L 537.471792 583.419115 
L 534.305975 580.26038 
" clip-path="url(#p954a9dfe67)" style="fill: none; stroke: #808080; stroke-linecap: round"/>
   </g>
   <g id="patch_5">
    <path d="M 478.382395 383.644847 
Q 654.686023 425.825808 829.902305 467.746619 
" clip-path="url(#p954a9dfe67)" style="fill: none; stroke: #808080; stroke-linecap: round"/>
    <path d="M 826.477466 464.870775 
L 829.902305 467.746619 
L 825.546726 468.760984 
" clip-path="url(#p954a9dfe67)" style="fill: none; stroke: #808080; stroke-linecap: round"/>
   </g>
   <g id="patch_6">
    <path d="M 461.306006 381.281852 
Q 331.87289 376.086197 203.556909 370.935386 
" clip-path="url(#p954a9dfe67)" style="fill: none; stroke: #808080; stroke-linecap: round"/>
    <path d="M 207.473472 373.094213 
L 203.556909 370.935386 
L 207.633909 369.097432 
" clip-path="url(#p954a9dfe67)" style="fill: none; stroke: #808080; stroke-linecap: round"/>
   </g>
   <g id="patch_7">
    <path d="M 474.267154 374.12156 
Q 540.887427 258.072067 606.951072 142.992195 
" clip-path="url(#p954a9dfe67)" style="fill: none; stroke: #808080; stroke-linecap: round"/>
    <path d="M 603.225108 145.46549 
L 606.951072 142.992195 
L 606.69413 147.456944 
" clip-path="url(#p954a9dfe67)" style="fill: none; stroke: #808080; stroke-linecap: round"/>
   </g>
   <g id="patch_8">
    <path d="M 508.442942 444.499901 
Q 491.461012 416.757943 475.062794 389.969546 
" clip-path="url(#p954a9dfe67)" style="fill: none; stroke: #808080; stroke-linecap: round"/>
    <path d="M 475.445363 394.425288 
L 475.062794 389.969546 
L 478.85693 392.336936 
" clip-path="url(#p954a9dfe67)" style="fill: none; stroke: #808080; stroke-linecap: round"/>
   </g>
   <g id="patch_9">
    <path d="M 521.606729 452.366355 
Q 676.185179 460.953679 829.647317 469.478989 
" clip-path="url(#p954a9dfe67)" style="fill: none; stroke: #808080; stroke-linecap: round"/>
    <path d="M 825.764411 467.260197 
L 829.647317 469.478989 
L 825.54254 471.254039 
" clip-path="url(#p954a9dfe67)" style="fill: none; stroke: #808080; stroke-linecap: round"/>
   </g>
   <g id="patch_10">
    <path d="M 514.630183 460.38145 
Q 526.76875 522.286433 538.692185 583.094274 
" clip-path="url(#p954a9dfe67)" style="fill: none; stroke: #808080; stroke-linecap: round"/>
    <path d="M 539.885132 578.784184 
L 538.692185 583.094274 
L 535.959881 579.553862 
" clip-path="url(#p954a9dfe67)" style="fill: none; stroke: #808080; stroke-linecap: round"/>
   </g>
   <g id="patch_11">
    <path d="M 504.570597 449.747048 
Q 353.374758 411.214154 203.262322 372.957369 
" clip-path="url(#p954a9dfe67)" style="fill: none; stroke: #808080; stroke-linecap: round"/>
    <path d="M 206.644504 375.883261 
L 203.262322 372.957369 
L 207.632345 372.007159 
" clip-path="url(#p954a9dfe67)" style="fill: none; stroke: #808080; stroke-linecap: round"/>
   </g>
   <g id="patch_12">
    <path d="M 482.796665 354.126605 
Q 478.208379 363.95493 474.093041 372.77018 
" clip-path="url(#p954a9dfe67)" style="fill: none; stroke: #808080; stroke-linecap: round"/>
    <path d="M 477.597351 369.991726 
L 474.093041 372.77018 
L 473.972864 368.299659 
" clip-path="url(#p954a9dfe67)" style="fill: none; stroke: #808080; stroke-linecap: round"/>
   </g>
   <g id="PathCollection_1">
    <defs>
     <path id="C0_0_3920c258eb" d="M 0 22.36068 
C 5.930122 22.36068 11.618159 20.004617 15.811388 15.811388 
C 20.004617 11.618159 22.36068 5.930122 22.36068 -0 
C 22.36068 -5.930122 20.004617 -11.618159 15.811388 -15.811388 
C 11.618159 -20.004617 5.930122 -22.36068 0 -22.36068 
C -5.930122 -22.36068 -11.618159 -20.004617 -15.811388 -15.811388 
C -20.004617 -11.618159 -22.36068 -5.930122 -22.36068 0 
C -22.36068 5.930122 -20.004617 11.618159 -15.811388 15.811388 
C -11.618159 20.004617 -5.930122 22.36068 0 22.36068 
z
"/>
    </defs>
    <g clip-path="url(#p954a9dfe67)">
     <use xlink:href="#C0_0_3920c258eb" x="611.820949" y="134.509091" style="fill: #ffc107; stroke: #ffc107"/>
    </g>
    <g clip-path="url(#p954a9dfe67)">
     <use xlink:href="#C0_0_3920c258eb" x="469.957301" y="381.629129" style="fill: #03a9f4; stroke: #03a9f4"/>
    </g>
    <g clip-path="url(#p954a9dfe67)">
     <use xlink:href="#C0_0_3920c258eb" x="272.014577" y="561.918993" style="fill: #8bc34a; stroke: #8bc34a"/>
    </g>
    <g clip-path="url(#p954a9dfe67)">
     <use xlink:href="#C0_0_3920c258eb" x="242.863089" y="202.104901" style="fill: #9c27b0; stroke: #9c27b0"/>
    </g>
    <g clip-path="url(#p954a9dfe67)">
     <use xlink:href="#C0_0_3920c258eb" x="512.964411" y="451.886247" style="fill: #ff5722; stroke: #ff5722"/>
    </g>
    <g clip-path="url(#p954a9dfe67)">
     <use xlink:href="#C0_0_3920c258eb" x="486.461313" y="346.276755" style="fill: #607d8b; stroke: #607d8b"/>
    </g>
    <g clip-path="url(#p954a9dfe67)">
     <use xlink:href="#C0_0_3920c258eb" x="839.409917" y="470.021333" style="fill: #e91e63; stroke: #e91e63"/>
    </g>
    <g clip-path="url(#p954a9dfe67)">
     <use xlink:href="#C0_0_3920c258eb" x="540.57393" y="592.690909" style="fill: #00bcd4; stroke: #00bcd4"/>
    </g>
    <g clip-path="url(#p954a9dfe67)">
     <use xlink:href="#C0_0_3920c258eb" x="193.790083" y="370.543329" style="fill: #795548; stroke: #795548"/>
    </g>
   </g>
   <g id="text_1">
    <g clip-path="url(#p954a9dfe67)">
     <!-- ðŸŒ XO Node Frontend -->
     <g transform="translate(555.607668 137.268466) scale(0.1 -0.1)">
      <defs>
       <path id="DejaVuSans-Bold-1f30d" d="M 319 -1131 
L 319 4513 
L 3519 4513 
L 3519 -1131 
L 319 -1131 
z
M 678 -775 
L 3163 -775 
L 3163 4153 
L 678 4153 
L 678 -775 
z
" transform="scale(0.015625)"/>
       <path id="DejaVuSans-Bold-20" transform="scale(0.015625)"/>
       <path id="DejaVuSans-Bold-58" d="M 3188 2381 
L 4806 0 
L 3553 0 
L 2463 1594 
L 1381 0 
L 122 0 
L 1741 2381 
L 184 4666 
L 1441 4666 
L 2463 3163 
L 3481 4666 
L 4744 4666 
L 3188 2381 
z
" transform="scale(0.015625)"/>
       <path id="DejaVuSans-Bold-4f" d="M 2719 3878 
Q 2169 3878 1866 3472 
Q 1563 3066 1563 2328 
Q 1563 1594 1866 1187 
Q 2169 781 2719 781 
Q 3272 781 3575 1187 
Q 3878 1594 3878 2328 
Q 3878 3066 3575 3472 
Q 3272 3878 2719 3878 
z
M 2719 4750 
Q 3844 4750 4481 4106 
Q 5119 3463 5119 2328 
Q 5119 1197 4481 553 
Q 3844 -91 2719 -91 
Q 1597 -91 958 553 
Q 319 1197 319 2328 
Q 319 3463 958 4106 
Q 1597 4750 2719 4750 
z
" transform="scale(0.015625)"/>
       <path id="DejaVuSans-Bold-4e" d="M 588 4666 
L 1931 4666 
L 3628 1466 
L 3628 4666 
L 4769 4666 
L 4769 0 
L 3425 0 
L 1728 3200 
L 1728 0 
L 588 0 
L 588 4666 
z
" transform="scale(0.015625)"/>
       <path id="DejaVuSans-Bold-6f" d="M 2203 2784 
Q 1831 2784 1636 2517 
Q 1441 2250 1441 1747 
Q 1441 1244 1636 976 
Q 1831 709 2203 709 
Q 2569 709 2762 976 
Q 2956 1244 2956 1747 
Q 2956 2250 2762 2517 
Q 2569 2784 2203 2784 
z
M 2203 3584 
Q 3106 3584 3614 3096 
Q 4122 2609 4122 1747 
Q 4122 884 3614 396 
Q 3106 -91 2203 -91 
Q 1297 -91 786 396 
Q 275 884 275 1747 
Q 275 2609 786 3096 
Q 1297 3584 2203 3584 
z
" transform="scale(0.015625)"/>
       <path id="DejaVuSans-Bold-64" d="M 2919 2988 
L 2919 4863 
L 4044 4863 
L 4044 0 
L 2919 0 
L 2919 506 
Q 2688 197 2409 53 
Q 2131 -91 1766 -91 
Q 1119 -91 703 423 
Q 288 938 288 1747 
Q 288 2556 703 3070 
Q 1119 3584 1766 3584 
Q 2128 3584 2408 3439 
Q 2688 3294 2919 2988 
z
M 2181 722 
Q 2541 722 2730 984 
Q 2919 1247 2919 1747 
Q 2919 2247 2730 2509 
Q 2541 2772 2181 2772 
Q 1825 2772 1636 2509 
Q 1447 2247 1447 1747 
Q 1447 1247 1636 984 
Q 1825 722 2181 722 
z
" transform="scale(0.015625)"/>
       <path id="DejaVuSans-Bold-65" d="M 4031 1759 
L 4031 1441 
L 1416 1441 
Q 1456 1047 1700 850 
Q 1944 653 2381 653 
Q 2734 653 3104 758 
Q 3475 863 3866 1075 
L 3866 213 
Q 3469 63 3072 -14 
Q 2675 -91 2278 -91 
Q 1328 -91 801 392 
Q 275 875 275 1747 
Q 275 2603 792 3093 
Q 1309 3584 2216 3584 
Q 3041 3584 3536 3087 
Q 4031 2591 4031 1759 
z
M 2881 2131 
Q 2881 2450 2695 2645 
Q 2509 2841 2209 2841 
Q 1884 2841 1681 2658 
Q 1478 2475 1428 2131 
L 2881 2131 
z
" transform="scale(0.015625)"/>
       <path id="DejaVuSans-Bold-46" d="M 588 4666 
L 3834 4666 
L 3834 3756 
L 1791 3756 
L 1791 2888 
L 3713 2888 
L 3713 1978 
L 1791 1978 
L 1791 0 
L 588 0 
L 588 4666 
z
" transform="scale(0.015625)"/>
       <path id="DejaVuSans-Bold-72" d="M 3138 2547 
Q 2991 2616 2845 2648 
Q 2700 2681 2553 2681 
Q 2122 2681 1889 2404 
Q 1656 2128 1656 1613 
L 1656 0 
L 538 0 
L 538 3500 
L 1656 3500 
L 1656 2925 
Q 1872 3269 2151 3426 
Q 2431 3584 2822 3584 
Q 2878 3584 2943 3579 
Q 3009 3575 3134 3559 
L 3138 2547 
z
" transform="scale(0.015625)"/>
       <path id="DejaVuSans-Bold-6e" d="M 4056 2131 
L 4056 0 
L 2931 0 
L 2931 347 
L 2931 1631 
Q 2931 2084 2911 2256 
Q 2891 2428 2841 2509 
Q 2775 2619 2662 2680 
Q 2550 2741 2406 2741 
Q 2056 2741 1856 2470 
Q 1656 2200 1656 1722 
L 1656 0 
L 538 0 
L 538 3500 
L 1656 3500 
L 1656 2988 
Q 1909 3294 2193 3439 
Q 2478 3584 2822 3584 
Q 3428 3584 3742 3212 
Q 4056 2841 4056 2131 
z
" transform="scale(0.015625)"/>
       <path id="DejaVuSans-Bold-74" d="M 1759 4494 
L 1759 3500 
L 2913 3500 
L 2913 2700 
L 1759 2700 
L 1759 1216 
Q 1759 972 1856 886 
Q 1953 800 2241 800 
L 2816 800 
L 2816 0 
L 1856 0 
Q 1194 0 917 276 
Q 641 553 641 1216 
L 641 2700 
L 84 2700 
L 84 3500 
L 641 3500 
L 641 4494 
L 1759 4494 
z
" transform="scale(0.015625)"/>
      </defs>
      <use xlink:href="#DejaVuSans-Bold-1f30d"/>
      <use xlink:href="#DejaVuSans-Bold-20" x="60.009766"/>
      <use xlink:href="#DejaVuSans-Bold-58" x="94.824219"/>
      <use xlink:href="#DejaVuSans-Bold-4f" x="168.298828"/>
      <use xlink:href="#DejaVuSans-Bold-20" x="253.308594"/>
      <use xlink:href="#DejaVuSans-Bold-4e" x="288.123047"/>
      <use xlink:href="#DejaVuSans-Bold-6f" x="371.814453"/>
      <use xlink:href="#DejaVuSans-Bold-64" x="440.515625"/>
      <use xlink:href="#DejaVuSans-Bold-65" x="512.097656"/>
      <use xlink:href="#DejaVuSans-Bold-20" x="579.919922"/>
      <use xlink:href="#DejaVuSans-Bold-46" x="614.734375"/>
      <use xlink:href="#DejaVuSans-Bold-72" x="676.669922"/>
      <use xlink:href="#DejaVuSans-Bold-6f" x="725.986328"/>
      <use xlink:href="#DejaVuSans-Bold-6e" x="794.6875"/>
      <use xlink:href="#DejaVuSans-Bold-74" x="865.878906"/>
      <use xlink:href="#DejaVuSans-Bold-65" x="913.681641"/>
      <use xlink:href="#DejaVuSans-Bold-6e" x="981.503906"/>
      <use xlink:href="#DejaVuSans-Bold-64" x="1052.695312"/>
     </g>
    </g>
   </g>
   <g id="text_2">
    <g clip-path="url(#p954a9dfe67)">
     <!-- ðŸ“¦ XO Vault API (FastAPI) -->
     <g transform="translate(402.216676 384.388504) scale(0.1 -0.1)">
      <defs>
       <path id="DejaVuSans-Bold-1f4e6" d="M 319 -1131 
L 319 4513 
L 3519 4513 
L 3519 -1131 
L 319 -1131 
z
M 678 -775 
L 3163 -775 
L 3163 4153 
L 678 4153 
L 678 -775 
z
" transform="scale(0.015625)"/>
       <path id="DejaVuSans-Bold-56" d="M 31 4666 
L 1241 4666 
L 2478 1222 
L 3713 4666 
L 4922 4666 
L 3194 0 
L 1759 0 
L 31 4666 
z
" transform="scale(0.015625)"/>
       <path id="DejaVuSans-Bold-61" d="M 2106 1575 
Q 1756 1575 1579 1456 
Q 1403 1338 1403 1106 
Q 1403 894 1545 773 
Q 1688 653 1941 653 
Q 2256 653 2472 879 
Q 2688 1106 2688 1447 
L 2688 1575 
L 2106 1575 
z
M 3816 1997 
L 3816 0 
L 2688 0 
L 2688 519 
Q 2463 200 2181 54 
Q 1900 -91 1497 -91 
Q 953 -91 614 226 
Q 275 544 275 1050 
Q 275 1666 698 1953 
Q 1122 2241 2028 2241 
L 2688 2241 
L 2688 2328 
Q 2688 2594 2478 2717 
Q 2269 2841 1825 2841 
Q 1466 2841 1156 2769 
Q 847 2697 581 2553 
L 581 3406 
Q 941 3494 1303 3539 
Q 1666 3584 2028 3584 
Q 2975 3584 3395 3211 
Q 3816 2838 3816 1997 
z
" transform="scale(0.015625)"/>
       <path id="DejaVuSans-Bold-75" d="M 500 1363 
L 500 3500 
L 1625 3500 
L 1625 3150 
Q 1625 2866 1622 2436 
Q 1619 2006 1619 1863 
Q 1619 1441 1641 1255 
Q 1663 1069 1716 984 
Q 1784 875 1895 815 
Q 2006 756 2150 756 
Q 2500 756 2700 1025 
Q 2900 1294 2900 1772 
L 2900 3500 
L 4019 3500 
L 4019 0 
L 2900 0 
L 2900 506 
Q 2647 200 2364 54 
Q 2081 -91 1741 -91 
Q 1134 -91 817 281 
Q 500 653 500 1363 
z
" transform="scale(0.015625)"/>
       <path id="DejaVuSans-Bold-6c" d="M 538 4863 
L 1656 4863 
L 1656 0 
L 538 0 
L 538 4863 
z
" transform="scale(0.015625)"/>
       <path id="DejaVuSans-Bold-41" d="M 3419 850 
L 1538 850 
L 1241 0 
L 31 0 
L 1759 4666 
L 3194 4666 
L 4922 0 
L 3713 0 
L 3419 850 
z
M 1838 1716 
L 3116 1716 
L 2478 3572 
L 1838 1716 
z
" transform="scale(0.015625)"/>
       <path id="DejaVuSans-Bold-50" d="M 588 4666 
L 2584 4666 
Q 3475 4666 3951 4270 
Q 4428 3875 4428 3144 
Q 4428 2409 3951 2014 
Q 3475 1619 2584 1619 
L 1791 1619 
L 1791 0 
L 588 0 
L 588 4666 
z
M 1791 3794 
L 1791 2491 
L 2456 2491 
Q 2806 2491 2997 2661 
Q 3188 2831 3188 3144 
Q 3188 3456 2997 3625 
Q 2806 3794 2456 3794 
L 1791 3794 
z
" transform="scale(0.015625)"/>
       <path id="DejaVuSans-Bold-49" d="M 588 4666 
L 1791 4666 
L 1791 0 
L 588 0 
L 588 4666 
z
" transform="scale(0.015625)"/>
       <path id="DejaVuSans-Bold-28" d="M 2413 -844 
L 1484 -844 
Q 1006 -72 778 623 
Q 550 1319 550 2003 
Q 550 2688 779 3389 
Q 1009 4091 1484 4856 
L 2413 4856 
Q 2013 4116 1813 3408 
Q 1613 2700 1613 2009 
Q 1613 1319 1811 609 
Q 2009 -100 2413 -844 
z
" transform="scale(0.015625)"/>
       <path id="DejaVuSans-Bold-73" d="M 3272 3391 
L 3272 2541 
Q 2913 2691 2578 2766 
Q 2244 2841 1947 2841 
Q 1628 2841 1473 2761 
Q 1319 2681 1319 2516 
Q 1319 2381 1436 2309 
Q 1553 2238 1856 2203 
L 2053 2175 
Q 2913 2066 3209 1816 
Q 3506 1566 3506 1031 
Q 3506 472 3093 190 
Q 2681 -91 1863 -91 
Q 1516 -91 1145 -36 
Q 775 19 384 128 
L 384 978 
Q 719 816 1070 734 
Q 1422 653 1784 653 
Q 2113 653 2278 743 
Q 2444 834 2444 1013 
Q 2444 1163 2330 1236 
Q 2216 1309 1875 1350 
L 1678 1375 
Q 931 1469 631 1722 
Q 331 1975 331 2491 
Q 331 3047 712 3315 
Q 1094 3584 1881 3584 
Q 2191 3584 2531 3537 
Q 2872 3491 3272 3391 
z
" transform="scale(0.015625)"/>
       <path id="DejaVuSans-Bold-29" d="M 513 -844 
Q 913 -100 1113 609 
Q 1313 1319 1313 2009 
Q 1313 2700 1113 3408 
Q 913 4116 513 4856 
L 1441 4856 
Q 1916 4091 2145 3389 
Q 2375 2688 2375 2003 
Q 2375 1319 2147 623 
Q 1919 -72 1441 -844 
L 513 -844 
z
" transform="scale(0.015625)"/>
      </defs>
      <use xlink:href="#DejaVuSans-Bold-1f4e6"/>
      <use xlink:href="#DejaVuSans-Bold-20" x="60.009766"/>
      <use xlink:href="#DejaVuSans-Bold-58" x="94.824219"/>
      <use xlink:href="#DejaVuSans-Bold-4f" x="168.298828"/>
      <use xlink:href="#DejaVuSans-Bold-20" x="253.308594"/>
      <use xlink:href="#DejaVuSans-Bold-56" x="288.123047"/>
      <use xlink:href="#DejaVuSans-Bold-61" x="360.015625"/>
      <use xlink:href="#DejaVuSans-Bold-75" x="427.496094"/>
      <use xlink:href="#DejaVuSans-Bold-6c" x="498.6875"/>
      <use xlink:href="#DejaVuSans-Bold-74" x="532.964844"/>
      <use xlink:href="#DejaVuSans-Bold-20" x="580.767578"/>
      <use xlink:href="#DejaVuSans-Bold-41" x="615.582031"/>
      <use xlink:href="#DejaVuSans-Bold-50" x="692.974609"/>
      <use xlink:href="#DejaVuSans-Bold-49" x="766.265625"/>
      <use xlink:href="#DejaVuSans-Bold-20" x="803.472656"/>
      <use xlink:href="#DejaVuSans-Bold-28" x="838.287109"/>
      <use xlink:href="#DejaVuSans-Bold-46" x="883.990234"/>
      <use xlink:href="#DejaVuSans-Bold-61" x="946.425781"/>
      <use xlink:href="#DejaVuSans-Bold-73" x="1013.90625"/>
      <use xlink:href="#DejaVuSans-Bold-74" x="1073.427734"/>
      <use xlink:href="#DejaVuSans-Bold-41" x="1121.230469"/>
      <use xlink:href="#DejaVuSans-Bold-50" x="1198.623047"/>
      <use xlink:href="#DejaVuSans-Bold-49" x="1271.914062"/>
      <use xlink:href="#DejaVuSans-Bold-29" x="1309.121094"/>
     </g>
    </g>
   </g>
   <g id="text_3">
    <g clip-path="url(#p954a9dfe67)">
     <!-- ðŸ” HashiCorp Vault -->
     <g transform="translate(221.943483 564.678368) scale(0.1 -0.1)">
      <defs>
       <path id="DejaVuSans-Bold-1f510" d="M 319 -1131 
L 319 4513 
L 3519 4513 
L 3519 -1131 
L 319 -1131 
z
M 678 -775 
L 3163 -775 
L 3163 4153 
L 678 4153 
L 678 -775 
z
" transform="scale(0.015625)"/>
       <path id="DejaVuSans-Bold-48" d="M 588 4666 
L 1791 4666 
L 1791 2888 
L 3566 2888 
L 3566 4666 
L 4769 4666 
L 4769 0 
L 3566 0 
L 3566 1978 
L 1791 1978 
L 1791 0 
L 588 0 
L 588 4666 
z
" transform="scale(0.015625)"/>
       <path id="DejaVuSans-Bold-68" d="M 4056 2131 
L 4056 0 
L 2931 0 
L 2931 347 
L 2931 1625 
Q 2931 2084 2911 2256 
Q 2891 2428 2841 2509 
Q 2775 2619 2662 2680 
Q 2550 2741 2406 2741 
Q 2056 2741 1856 2470 
Q 1656 2200 1656 1722 
L 1656 0 
L 538 0 
L 538 4863 
L 1656 4863 
L 1656 2988 
Q 1909 3294 2193 3439 
Q 2478 3584 2822 3584 
Q 3428 3584 3742 3212 
Q 4056 2841 4056 2131 
z
" transform="scale(0.015625)"/>
       <path id="DejaVuSans-Bold-69" d="M 538 3500 
L 1656 3500 
L 1656 0 
L 538 0 
L 538 3500 
z
M 538 4863 
L 1656 4863 
L 1656 3950 
L 538 3950 
L 538 4863 
z
" transform="scale(0.015625)"/>
       <path id="DejaVuSans-Bold-43" d="M 4288 256 
Q 3956 84 3597 -3 
Q 3238 -91 2847 -91 
Q 1681 -91 1000 561 
Q 319 1213 319 2328 
Q 319 3447 1000 4098 
Q 1681 4750 2847 4750 
Q 3238 4750 3597 4662 
Q 3956 4575 4288 4403 
L 4288 3438 
Q 3953 3666 3628 3772 
Q 3303 3878 2944 3878 
Q 2300 3878 1931 3465 
Q 1563 3053 1563 2328 
Q 1563 1606 1931 1193 
Q 2300 781 2944 781 
Q 3303 781 3628 887 
Q 3953 994 4288 1222 
L 4288 256 
z
" transform="scale(0.015625)"/>
       <path id="DejaVuSans-Bold-70" d="M 1656 506 
L 1656 -1331 
L 538 -1331 
L 538 3500 
L 1656 3500 
L 1656 2988 
Q 1888 3294 2169 3439 
Q 2450 3584 2816 3584 
Q 3463 3584 3878 3070 
Q 4294 2556 4294 1747 
Q 4294 938 3878 423 
Q 3463 -91 2816 -91 
Q 2450 -91 2169 54 
Q 1888 200 1656 506 
z
M 2400 2772 
Q 2041 2772 1848 2508 
Q 1656 2244 1656 1747 
Q 1656 1250 1848 986 
Q 2041 722 2400 722 
Q 2759 722 2948 984 
Q 3138 1247 3138 1747 
Q 3138 2247 2948 2509 
Q 2759 2772 2400 2772 
z
" transform="scale(0.015625)"/>
      </defs>
      <use xlink:href="#DejaVuSans-Bold-1f510"/>
      <use xlink:href="#DejaVuSans-Bold-20" x="60.009766"/>
      <use xlink:href="#DejaVuSans-Bold-48" x="94.824219"/>
      <use xlink:href="#DejaVuSans-Bold-61" x="178.515625"/>
      <use xlink:href="#DejaVuSans-Bold-73" x="245.996094"/>
      <use xlink:href="#DejaVuSans-Bold-68" x="305.517578"/>
      <use xlink:href="#DejaVuSans-Bold-69" x="376.708984"/>
      <use xlink:href="#DejaVuSans-Bold-43" x="410.986328"/>
      <use xlink:href="#DejaVuSans-Bold-6f" x="484.375"/>
      <use xlink:href="#DejaVuSans-Bold-72" x="553.076172"/>
      <use xlink:href="#DejaVuSans-Bold-70" x="602.392578"/>
      <use xlink:href="#DejaVuSans-Bold-20" x="673.974609"/>
      <use xlink:href="#DejaVuSans-Bold-56" x="708.789062"/>
      <use xlink:href="#DejaVuSans-Bold-61" x="780.681641"/>
      <use xlink:href="#DejaVuSans-Bold-75" x="848.162109"/>
      <use xlink:href="#DejaVuSans-Bold-6c" x="919.353516"/>
      <use xlink:href="#DejaVuSans-Bold-74" x="953.630859"/>
     </g>
    </g>
   </g>
   <g id="text_4">
    <g clip-path="url(#p954a9dfe67)">
     <!-- ðŸ“ Arweave/IPFS -->
     <g transform="translate(199.38262 204.864276) scale(0.1 -0.1)">
      <defs>
       <path id="DejaVuSans-Bold-1f4c1" d="M 319 -1131 
L 319 4513 
L 3519 4513 
L 3519 -1131 
L 319 -1131 
z
M 678 -775 
L 3163 -775 
L 3163 4153 
L 678 4153 
L 678 -775 
z
" transform="scale(0.015625)"/>
       <path id="DejaVuSans-Bold-77" d="M 225 3500 
L 1313 3500 
L 1900 1088 
L 2491 3500 
L 3425 3500 
L 4013 1113 
L 4603 3500 
L 5691 3500 
L 4769 0 
L 3547 0 
L 2956 2406 
L 2369 0 
L 1147 0 
L 225 3500 
z
" transform="scale(0.015625)"/>
       <path id="DejaVuSans-Bold-76" d="M 97 3500 
L 1216 3500 
L 2088 1081 
L 2956 3500 
L 4078 3500 
L 2700 0 
L 1472 0 
L 97 3500 
z
" transform="scale(0.015625)"/>
       <path id="DejaVuSans-Bold-2f" d="M 1644 4666 
L 2338 4666 
L 691 -594 
L 0 -594 
L 1644 4666 
z
" transform="scale(0.015625)"/>
       <path id="DejaVuSans-Bold-53" d="M 3834 4519 
L 3834 3531 
Q 3450 3703 3084 3790 
Q 2719 3878 2394 3878 
Q 1963 3878 1756 3759 
Q 1550 3641 1550 3391 
Q 1550 3203 1689 3098 
Q 1828 2994 2194 2919 
L 2706 2816 
Q 3484 2659 3812 2340 
Q 4141 2022 4141 1434 
Q 4141 663 3683 286 
Q 3225 -91 2284 -91 
Q 1841 -91 1394 -6 
Q 947 78 500 244 
L 500 1259 
Q 947 1022 1364 901 
Q 1781 781 2169 781 
Q 2563 781 2772 912 
Q 2981 1044 2981 1288 
Q 2981 1506 2839 1625 
Q 2697 1744 2272 1838 
L 1806 1941 
Q 1106 2091 782 2419 
Q 459 2747 459 3303 
Q 459 4000 909 4375 
Q 1359 4750 2203 4750 
Q 2588 4750 2994 4692 
Q 3400 4634 3834 4519 
z
" transform="scale(0.015625)"/>
      </defs>
      <use xlink:href="#DejaVuSans-Bold-1f4c1"/>
      <use xlink:href="#DejaVuSans-Bold-20" x="60.009766"/>
      <use xlink:href="#DejaVuSans-Bold-41" x="94.824219"/>
      <use xlink:href="#DejaVuSans-Bold-72" x="172.216797"/>
      <use xlink:href="#DejaVuSans-Bold-77" x="221.533203"/>
      <use xlink:href="#DejaVuSans-Bold-65" x="313.916016"/>
      <use xlink:href="#DejaVuSans-Bold-61" x="381.738281"/>
      <use xlink:href="#DejaVuSans-Bold-76" x="449.21875"/>
      <use xlink:href="#DejaVuSans-Bold-65" x="514.404297"/>
      <use xlink:href="#DejaVuSans-Bold-2f" x="582.226562"/>
      <use xlink:href="#DejaVuSans-Bold-49" x="618.75"/>
      <use xlink:href="#DejaVuSans-Bold-50" x="655.957031"/>
      <use xlink:href="#DejaVuSans-Bold-46" x="729.248047"/>
      <use xlink:href="#DejaVuSans-Bold-53" x="797.558594"/>
     </g>
    </g>
   </g>
   <g id="text_5">
    <g clip-path="url(#p954a9dfe67)">
     <!-- ðŸ§  XO Agent -->
     <g transform="translate(481.769098 454.567497) scale(0.1 -0.1)">
      <defs>
       <path id="DejaVuSans-Bold-1f9e0" d="M 319 -1131 
L 319 4513 
L 3519 4513 
L 3519 -1131 
L 319 -1131 
z
M 678 -775 
L 3163 -775 
L 3163 4153 
L 678 4153 
L 678 -775 
z
" transform="scale(0.015625)"/>
       <path id="DejaVuSans-Bold-67" d="M 2919 594 
Q 2688 288 2409 144 
Q 2131 0 1766 0 
Q 1125 0 706 504 
Q 288 1009 288 1791 
Q 288 2575 706 3076 
Q 1125 3578 1766 3578 
Q 2131 3578 2409 3434 
Q 2688 3291 2919 2981 
L 2919 3500 
L 4044 3500 
L 4044 353 
Q 4044 -491 3511 -936 
Q 2978 -1381 1966 -1381 
Q 1638 -1381 1331 -1331 
Q 1025 -1281 716 -1178 
L 716 -306 
Q 1009 -475 1290 -558 
Q 1572 -641 1856 -641 
Q 2406 -641 2662 -400 
Q 2919 -159 2919 353 
L 2919 594 
z
M 2181 2772 
Q 1834 2772 1640 2515 
Q 1447 2259 1447 1791 
Q 1447 1309 1634 1061 
Q 1822 813 2181 813 
Q 2531 813 2725 1069 
Q 2919 1325 2919 1791 
Q 2919 2259 2725 2515 
Q 2531 2772 2181 2772 
z
" transform="scale(0.015625)"/>
      </defs>
      <use xlink:href="#DejaVuSans-Bold-1f9e0"/>
      <use xlink:href="#DejaVuSans-Bold-20" x="60.009766"/>
      <use xlink:href="#DejaVuSans-Bold-58" x="94.824219"/>
      <use xlink:href="#DejaVuSans-Bold-4f" x="168.298828"/>
      <use xlink:href="#DejaVuSans-Bold-20" x="253.308594"/>
      <use xlink:href="#DejaVuSans-Bold-41" x="288.123047"/>
      <use xlink:href="#DejaVuSans-Bold-67" x="365.515625"/>
      <use xlink:href="#DejaVuSans-Bold-65" x="437.097656"/>
      <use xlink:href="#DejaVuSans-Bold-6e" x="504.919922"/>
      <use xlink:href="#DejaVuSans-Bold-74" x="576.111328"/>
     </g>
    </g>
   </g>
   <g id="text_6">
    <g clip-path="url(#p954a9dfe67)">
     <!-- ðŸ› ï¸ CLI (xo-fab) -->
     <g transform="translate(448.830063 349.03613) scale(0.1 -0.1)">
      <defs>
       <path id="DejaVuSans-Bold-1f6e0" d="M 319 -1131 
L 319 4513 
L 3519 4513 
L 3519 -1131 
L 319 -1131 
z
M 678 -775 
L 3163 -775 
L 3163 4153 
L 678 4153 
L 678 -775 
z
" transform="scale(0.015625)"/>
       <path id="DejaVuSans-Bold-fe0f" transform="scale(0.015625)"/>
       <path id="DejaVuSans-Bold-4c" d="M 588 4666 
L 1791 4666 
L 1791 909 
L 3903 909 
L 3903 0 
L 588 0 
L 588 4666 
z
" transform="scale(0.015625)"/>
       <path id="DejaVuSans-Bold-78" d="M 1422 1791 
L 159 3500 
L 1344 3500 
L 2059 2463 
L 2784 3500 
L 3969 3500 
L 2706 1797 
L 4031 0 
L 2847 0 
L 2059 1106 
L 1281 0 
L 97 0 
L 1422 1791 
z
" transform="scale(0.015625)"/>
       <path id="DejaVuSans-Bold-2d" d="M 347 2297 
L 2309 2297 
L 2309 1388 
L 347 1388 
L 347 2297 
z
" transform="scale(0.015625)"/>
       <path id="DejaVuSans-Bold-66" d="M 2841 4863 
L 2841 4128 
L 2222 4128 
Q 1984 4128 1890 4042 
Q 1797 3956 1797 3744 
L 1797 3500 
L 2753 3500 
L 2753 2700 
L 1797 2700 
L 1797 0 
L 678 0 
L 678 2700 
L 122 2700 
L 122 3500 
L 678 3500 
L 678 3744 
Q 678 4316 997 4589 
Q 1316 4863 1984 4863 
L 2841 4863 
z
" transform="scale(0.015625)"/>
       <path id="DejaVuSans-Bold-62" d="M 2400 722 
Q 2759 722 2948 984 
Q 3138 1247 3138 1747 
Q 3138 2247 2948 2509 
Q 2759 2772 2400 2772 
Q 2041 2772 1848 2508 
Q 1656 2244 1656 1747 
Q 1656 1250 1848 986 
Q 2041 722 2400 722 
z
M 1656 2988 
Q 1888 3294 2169 3439 
Q 2450 3584 2816 3584 
Q 3463 3584 3878 3070 
Q 4294 2556 4294 1747 
Q 4294 938 3878 423 
Q 3463 -91 2816 -91 
Q 2450 -91 2169 54 
Q 1888 200 1656 506 
L 1656 0 
L 538 0 
L 538 4863 
L 1656 4863 
L 1656 2988 
z
" transform="scale(0.015625)"/>
      </defs>
      <use xlink:href="#DejaVuSans-Bold-1f6e0"/>
      <use xlink:href="#DejaVuSans-Bold-fe0f" x="60.009766"/>
      <use xlink:href="#DejaVuSans-Bold-20" x="60.009766"/>
      <use xlink:href="#DejaVuSans-Bold-43" x="94.824219"/>
      <use xlink:href="#DejaVuSans-Bold-4c" x="168.212891"/>
      <use xlink:href="#DejaVuSans-Bold-49" x="231.933594"/>
      <use xlink:href="#DejaVuSans-Bold-20" x="269.140625"/>
      <use xlink:href="#DejaVuSans-Bold-28" x="303.955078"/>
      <use xlink:href="#DejaVuSans-Bold-78" x="349.658203"/>
      <use xlink:href="#DejaVuSans-Bold-6f" x="414.160156"/>
      <use xlink:href="#DejaVuSans-Bold-2d" x="482.861328"/>
      <use xlink:href="#DejaVuSans-Bold-66" x="524.365234"/>
      <use xlink:href="#DejaVuSans-Bold-61" x="567.871094"/>
      <use xlink:href="#DejaVuSans-Bold-62" x="635.351562"/>
      <use xlink:href="#DejaVuSans-Bold-29" x="706.933594"/>
     </g>
    </g>
   </g>
   <g id="text_7">
    <g clip-path="url(#p954a9dfe67)">
     <!-- ðŸ§¾ Digest Generator -->
     <g transform="translate(786.150542 472.741645) scale(0.1 -0.1)">
      <defs>
       <path id="DejaVuSans-Bold-1f9fe" d="M 319 -1131 
L 319 4513 
L 3519 4513 
L 3519 -1131 
L 319 -1131 
z
M 678 -775 
L 3163 -775 
L 3163 4153 
L 678 4153 
L 678 -775 
z
" transform="scale(0.015625)"/>
       <path id="DejaVuSans-Bold-44" d="M 1791 3756 
L 1791 909 
L 2222 909 
Q 2959 909 3348 1275 
Q 3738 1641 3738 2338 
Q 3738 3031 3350 3393 
Q 2963 3756 2222 3756 
L 1791 3756 
z
M 588 4666 
L 1856 4666 
Q 2919 4666 3439 4514 
Q 3959 4363 4331 4000 
Q 4659 3684 4818 3271 
Q 4978 2859 4978 2338 
Q 4978 1809 4818 1395 
Q 4659 981 4331 666 
Q 3956 303 3431 151 
Q 2906 0 1856 0 
L 588 0 
L 588 4666 
z
" transform="scale(0.015625)"/>
       <path id="DejaVuSans-Bold-47" d="M 4781 347 
Q 4331 128 3847 18 
Q 3363 -91 2847 -91 
Q 1681 -91 1000 561 
Q 319 1213 319 2328 
Q 319 3456 1012 4103 
Q 1706 4750 2913 4750 
Q 3378 4750 3804 4662 
Q 4231 4575 4609 4403 
L 4609 3438 
Q 4219 3659 3833 3768 
Q 3447 3878 3059 3878 
Q 2341 3878 1952 3476 
Q 1563 3075 1563 2328 
Q 1563 1588 1938 1184 
Q 2313 781 3003 781 
Q 3191 781 3352 804 
Q 3513 828 3641 878 
L 3641 1784 
L 2906 1784 
L 2906 2591 
L 4781 2591 
L 4781 347 
z
" transform="scale(0.015625)"/>
      </defs>
      <use xlink:href="#DejaVuSans-Bold-1f9fe"/>
      <use xlink:href="#DejaVuSans-Bold-20" x="60.009766"/>
      <use xlink:href="#DejaVuSans-Bold-44" x="94.824219"/>
      <use xlink:href="#DejaVuSans-Bold-69" x="177.832031"/>
      <use xlink:href="#DejaVuSans-Bold-67" x="212.109375"/>
      <use xlink:href="#DejaVuSans-Bold-65" x="283.691406"/>
      <use xlink:href="#DejaVuSans-Bold-73" x="351.513672"/>
      <use xlink:href="#DejaVuSans-Bold-74" x="411.035156"/>
      <use xlink:href="#DejaVuSans-Bold-20" x="458.837891"/>
      <use xlink:href="#DejaVuSans-Bold-47" x="493.652344"/>
      <use xlink:href="#DejaVuSans-Bold-65" x="575.732422"/>
      <use xlink:href="#DejaVuSans-Bold-6e" x="643.554688"/>
      <use xlink:href="#DejaVuSans-Bold-65" x="714.746094"/>
      <use xlink:href="#DejaVuSans-Bold-72" x="782.568359"/>
      <use xlink:href="#DejaVuSans-Bold-61" x="831.884766"/>
      <use xlink:href="#DejaVuSans-Bold-74" x="899.365234"/>
      <use xlink:href="#DejaVuSans-Bold-6f" x="947.167969"/>
      <use xlink:href="#DejaVuSans-Bold-72" x="1015.869141"/>
     </g>
    </g>
   </g>
   <g id="text_8">
    <g clip-path="url(#p954a9dfe67)">
     <!-- ðŸ“¥ Inbox API -->
     <g transform="translate(509.038774 595.450284) scale(0.1 -0.1)">
      <defs>
       <path id="DejaVuSans-Bold-1f4e5" d="M 319 -1131 
L 319 4513 
L 3519 4513 
L 3519 -1131 
L 319 -1131 
z
M 678 -775 
L 3163 -775 
L 3163 4153 
L 678 4153 
L 678 -775 
z
" transform="scale(0.015625)"/>
      </defs>
      <use xlink:href="#DejaVuSans-Bold-1f4e5"/>
      <use xlink:href="#DejaVuSans-Bold-20" x="60.009766"/>
      <use xlink:href="#DejaVuSans-Bold-49" x="94.824219"/>
      <use xlink:href="#DejaVuSans-Bold-6e" x="132.03125"/>
      <use xlink:href="#DejaVuSans-Bold-62" x="203.222656"/>
      <use xlink:href="#DejaVuSans-Bold-6f" x="274.804688"/>
      <use xlink:href="#DejaVuSans-Bold-78" x="343.505859"/>
      <use xlink:href="#DejaVuSans-Bold-20" x="408.007812"/>
      <use xlink:href="#DejaVuSans-Bold-41" x="442.822266"/>
      <use xlink:href="#DejaVuSans-Bold-50" x="520.214844"/>
      <use xlink:href="#DejaVuSans-Bold-49" x="593.505859"/>
     </g>
    </g>
   </g>
   <g id="text_9">
    <g clip-path="url(#p954a9dfe67)">
     <!-- ðŸŽ¯ Drops + Pulses -->
     <g transform="translate(146.490083 373.302704) scale(0.1 -0.1)">
      <defs>
       <path id="DejaVuSans-Bold-1f3af" d="M 319 -1131 
L 319 4513 
L 3519 4513 
L 3519 -1131 
L 319 -1131 
z
M 678 -775 
L 3163 -775 
L 3163 4153 
L 678 4153 
L 678 -775 
z
" transform="scale(0.015625)"/>
       <path id="DejaVuSans-Bold-2b" d="M 3053 4013 
L 3053 2375 
L 4684 2375 
L 4684 1638 
L 3053 1638 
L 3053 0 
L 2309 0 
L 2309 1638 
L 678 1638 
L 678 2375 
L 2309 2375 
L 2309 4013 
L 3053 4013 
z
" transform="scale(0.015625)"/>
      </defs>
      <use xlink:href="#DejaVuSans-Bold-1f3af"/>
      <use xlink:href="#DejaVuSans-Bold-20" x="60.009766"/>
      <use xlink:href="#DejaVuSans-Bold-44" x="94.824219"/>
      <use xlink:href="#DejaVuSans-Bold-72" x="177.832031"/>
      <use xlink:href="#DejaVuSans-Bold-6f" x="227.148438"/>
      <use xlink:href="#DejaVuSans-Bold-70" x="295.849609"/>
      <use xlink:href="#DejaVuSans-Bold-73" x="367.431641"/>
      <use xlink:href="#DejaVuSans-Bold-20" x="426.953125"/>
      <use xlink:href="#DejaVuSans-Bold-2b" x="461.767578"/>
      <use xlink:href="#DejaVuSans-Bold-20" x="545.556641"/>
      <use xlink:href="#DejaVuSans-Bold-50" x="580.371094"/>
      <use xlink:href="#DejaVuSans-Bold-75" x="653.662109"/>
      <use xlink:href="#DejaVuSans-Bold-6c" x="724.853516"/>
      <use xlink:href="#DejaVuSans-Bold-73" x="759.130859"/>
      <use xlink:href="#DejaVuSans-Bold-65" x="818.652344"/>
      <use xlink:href="#DejaVuSans-Bold-73" x="886.474609"/>
     </g>
    </g>
   </g>
   <g id="text_10">
    <!-- XO Vault Ecosystem Architecture -->
    <g style="fill: #333333" transform="translate(385.28375 80.4) scale(0.16 -0.16)">
     <defs>
      <path id="DejaVuSans-58" d="M 403 4666 
L 1081 4666 
L 2241 2931 
L 3406 4666 
L 4084 4666 
L 2584 2425 
L 4184 0 
L 3506 0 
L 2194 1984 
L 872 0 
L 191 0 
L 1856 2491 
L 403 4666 
z
" transform="scale(0.015625)"/>
      <path id="DejaVuSans-4f" d="M 2522 4238 
Q 1834 4238 1429 3725 
Q 1025 3213 1025 2328 
Q 1025 1447 1429 934 
Q 1834 422 2522 422 
Q 3209 422 3611 934 
Q 4013 1447 4013 2328 
Q 4013 3213 3611 3725 
Q 3209 4238 2522 4238 
z
M 2522 4750 
Q 3503 4750 4090 4092 
Q 4678 3434 4678 2328 
Q 4678 1225 4090 567 
Q 3503 -91 2522 -91 
Q 1538 -91 948 565 
Q 359 1222 359 2328 
Q 359 3434 948 4092 
Q 1538 4750 2522 4750 
z
" transform="scale(0.015625)"/>
      <path id="DejaVuSans-20" transform="scale(0.015625)"/>
      <path id="DejaVuSans-56" d="M 1831 0 
L 50 4666 
L 709 4666 
L 2188 738 
L 3669 4666 
L 4325 4666 
L 2547 0 
L 1831 0 
z
" transform="scale(0.015625)"/>
      <path id="DejaVuSans-61" d="M 2194 1759 
Q 1497 1759 1228 1600 
Q 959 1441 959 1056 
Q 959 750 1161 570 
Q 1363 391 1709 391 
Q 2188 391 2477 730 
Q 2766 1069 2766 1631 
L 2766 1759 
L 2194 1759 
z
M 3341 1997 
L 3341 0 
L 2766 0 
L 2766 531 
Q 2569 213 2275 61 
Q 1981 -91 1556 -91 
Q 1019 -91 701 211 
Q 384 513 384 1019 
Q 384 1609 779 1909 
Q 1175 2209 1959 2209 
L 2766 2209 
L 2766 2266 
Q 2766 2663 2505 2880 
Q 2244 3097 1772 3097 
Q 1472 3097 1187 3025 
Q 903 2953 641 2809 
L 641 3341 
Q 956 3463 1253 3523 
Q 1550 3584 1831 3584 
Q 2591 3584 2966 3190 
Q 3341 2797 3341 1997 
z
" transform="scale(0.015625)"/>
      <path id="DejaVuSans-75" d="M 544 1381 
L 544 3500 
L 1119 3500 
L 1119 1403 
Q 1119 906 1312 657 
Q 1506 409 1894 409 
Q 2359 409 2629 706 
Q 2900 1003 2900 1516 
L 2900 3500 
L 3475 3500 
L 3475 0 
L 2900 0 
L 2900 538 
Q 2691 219 2414 64 
Q 2138 -91 1772 -91 
Q 1169 -91 856 284 
Q 544 659 544 1381 
z
M 1991 3584 
L 1991 3584 
z
" transform="scale(0.015625)"/>
      <path id="DejaVuSans-6c" d="M 603 4863 
L 1178 4863 
L 1178 0 
L 603 0 
L 603 4863 
z
" transform="scale(0.015625)"/>
      <path id="DejaVuSans-74" d="M 1172 4494 
L 1172 3500 
L 2356 3500 
L 2356 3053 
L 1172 3053 
L 1172 1153 
Q 1172 725 1289 603 
Q 1406 481 1766 481 
L 2356 481 
L 2356 0 
L 1766 0 
Q 1100 0 847 248 
Q 594 497 594 1153 
L 594 3053 
L 172 3053 
L 172 3500 
L 594 3500 
L 594 4494 
L 1172 4494 
z
" transform="scale(0.015625)"/>
      <path id="DejaVuSans-45" d="M 628 4666 
L 3578 4666 
L 3578 4134 
L 1259 4134 
L 1259 2753 
L 3481 2753 
L 3481 2222 
L 1259 2222 
L 1259 531 
L 3634 531 
L 3634 0 
L 628 0 
L 628 4666 
z
" transform="scale(0.015625)"/>
      <path id="DejaVuSans-63" d="M 3122 3366 
L 3122 2828 
Q 2878 2963 2633 3030 
Q 2388 3097 2138 3097 
Q 1578 3097 1268 2742 
Q 959 2388 959 1747 
Q 959 1106 1268 751 
Q 1578 397 2138 397 
Q 2388 397 2633 464 
Q 2878 531 3122 666 
L 3122 134 
Q 2881 22 2623 -34 
Q 2366 -91 2075 -91 
Q 1284 -91 818 406 
Q 353 903 353 1747 
Q 353 2603 823 3093 
Q 1294 3584 2113 3584 
Q 2378 3584 2631 3529 
Q 2884 3475 3122 3366 
z
" transform="scale(0.015625)"/>
      <path id="DejaVuSans-6f" d="M 1959 3097 
Q 1497 3097 1228 2736 
Q 959 2375 959 1747 
Q 959 1119 1226 758 
Q 1494 397 1959 397 
Q 2419 397 2687 759 
Q 2956 1122 2956 1747 
Q 2956 2369 2687 2733 
Q 2419 3097 1959 3097 
z
M 1959 3584 
Q 2709 3584 3137 3096 
Q 3566 2609 3566 1747 
Q 3566 888 3137 398 
Q 2709 -91 1959 -91 
Q 1206 -91 779 398 
Q 353 888 353 1747 
Q 353 2609 779 3096 
Q 1206 3584 1959 3584 
z
" transform="scale(0.015625)"/>
      <path id="DejaVuSans-73" d="M 2834 3397 
L 2834 2853 
Q 2591 2978 2328 3040 
Q 2066 3103 1784 3103 
Q 1356 3103 1142 2972 
Q 928 2841 928 2578 
Q 928 2378 1081 2264 
Q 1234 2150 1697 2047 
L 1894 2003 
Q 2506 1872 2764 1633 
Q 3022 1394 3022 966 
Q 3022 478 2636 193 
Q 2250 -91 1575 -91 
Q 1294 -91 989 -36 
Q 684 19 347 128 
L 347 722 
Q 666 556 975 473 
Q 1284 391 1588 391 
Q 1994 391 2212 530 
Q 2431 669 2431 922 
Q 2431 1156 2273 1281 
Q 2116 1406 1581 1522 
L 1381 1569 
Q 847 1681 609 1914 
Q 372 2147 372 2553 
Q 372 3047 722 3315 
Q 1072 3584 1716 3584 
Q 2034 3584 2315 3537 
Q 2597 3491 2834 3397 
z
" transform="scale(0.015625)"/>
      <path id="DejaVuSans-79" d="M 2059 -325 
Q 1816 -950 1584 -1140 
Q 1353 -1331 966 -1331 
L 506 -1331 
L 506 -850 
L 844 -850 
Q 1081 -850 1212 -737 
Q 1344 -625 1503 -206 
L 1606 56 
L 191 3500 
L 800 3500 
L 1894 763 
L 2988 3500 
L 3597 3500 
L 2059 -325 
z
" transform="scale(0.015625)"/>
      <path id="DejaVuSans-65" d="M 3597 1894 
L 3597 1613 
L 953 1613 
Q 991 1019 1311 708 
Q 1631 397 2203 397 
Q 2534 397 2845 478 
Q 3156 559 3463 722 
L 3463 178 
Q 3153 47 2828 -22 
Q 2503 -91 2169 -91 
Q 1331 -91 842 396 
Q 353 884 353 1716 
Q 353 2575 817 3079 
Q 1281 3584 2069 3584 
Q 2775 3584 3186 3129 
Q 3597 2675 3597 1894 
z
M 3022 2063 
Q 3016 2534 2758 2815 
Q 2500 3097 2075 3097 
Q 1594 3097 1305 2825 
Q 1016 2553 972 2059 
L 3022 2063 
z
" transform="scale(0.015625)"/>
      <path id="DejaVuSans-6d" d="M 3328 2828 
Q 3544 3216 3844 3400 
Q 4144 3584 4550 3584 
Q 5097 3584 5394 3201 
Q 5691 2819 5691 2113 
L 5691 0 
L 5113 0 
L 5113 2094 
Q 5113 2597 4934 2840 
Q 4756 3084 4391 3084 
Q 3944 3084 3684 2787 
Q 3425 2491 3425 1978 
L 3425 0 
L 2847 0 
L 2847 2094 
Q 2847 2600 2669 2842 
Q 2491 3084 2119 3084 
Q 1678 3084 1418 2786 
Q 1159 2488 1159 1978 
L 1159 0 
L 581 0 
L 581 3500 
L 1159 3500 
L 1159 2956 
Q 1356 3278 1631 3431 
Q 1906 3584 2284 3584 
Q 2666 3584 2933 3390 
Q 3200 3197 3328 2828 
z
" transform="scale(0.015625)"/>
      <path id="DejaVuSans-41" d="M 2188 4044 
L 1331 1722 
L 3047 1722 
L 2188 4044 
z
M 1831 4666 
L 2547 4666 
L 4325 0 
L 3669 0 
L 3244 1197 
L 1141 1197 
L 716 0 
L 50 0 
L 1831 4666 
z
" transform="scale(0.015625)"/>
      <path id="DejaVuSans-72" d="M 2631 2963 
Q 2534 3019 2420 3045 
Q 2306 3072 2169 3072 
Q 1681 3072 1420 2755 
Q 1159 2438 1159 1844 
L 1159 0 
L 581 0 
L 581 3500 
L 1159 3500 
L 1159 2956 
Q 1341 3275 1631 3429 
Q 1922 3584 2338 3584 
Q 2397 3584 2469 3576 
Q 2541 3569 2628 3553 
L 2631 2963 
z
" transform="scale(0.015625)"/>
      <path id="DejaVuSans-68" d="M 3513 2113 
L 3513 0 
L 2938 0 
L 2938 2094 
Q 2938 2591 2744 2837 
Q 2550 3084 2163 3084 
Q 1697 3084 1428 2787 
Q 1159 2491 1159 1978 
L 1159 0 
L 581 0 
L 581 4863 
L 1159 4863 
L 1159 2956 
Q 1366 3272 1645 3428 
Q 1925 3584 2291 3584 
Q 2894 3584 3203 3211 
Q 3513 2838 3513 2113 
z
" transform="scale(0.015625)"/>
      <path id="DejaVuSans-69" d="M 603 3500 
L 1178 3500 
L 1178 0 
L 603 0 
L 603 3500 
z
M 603 4863 
L 1178 4863 
L 1178 4134 
L 603 4134 
L 603 4863 
z
" transform="scale(0.015625)"/>
     </defs>
     <use xlink:href="#DejaVuSans-58"/>
     <use xlink:href="#DejaVuSans-4f" x="62.130859"/>
     <use xlink:href="#DejaVuSans-20" x="140.841797"/>
     <use xlink:href="#DejaVuSans-56" x="172.628906"/>
     <use xlink:href="#DejaVuSans-61" x="233.287109"/>
     <use xlink:href="#DejaVuSans-75" x="294.566406"/>
     <use xlink:href="#DejaVuSans-6c" x="357.945312"/>
     <use xlink:href="#DejaVuSans-74" x="385.728516"/>
     <use xlink:href="#DejaVuSans-20" x="424.9375"/>
     <use xlink:href="#DejaVuSans-45" x="456.724609"/>
     <use xlink:href="#DejaVuSans-63" x="519.908203"/>
     <use xlink:href="#DejaVuSans-6f" x="574.888672"/>
     <use xlink:href="#DejaVuSans-73" x="636.070312"/>
     <use xlink:href="#DejaVuSans-79" x="688.169922"/>
     <use xlink:href="#DejaVuSans-73" x="747.349609"/>
     <use xlink:href="#DejaVuSans-74" x="799.449219"/>
     <use xlink:href="#DejaVuSans-65" x="838.658203"/>
     <use xlink:href="#DejaVuSans-6d" x="900.181641"/>
     <use xlink:href="#DejaVuSans-20" x="997.59375"/>
     <use xlink:href="#DejaVuSans-41" x="1029.380859"/>
     <use xlink:href="#DejaVuSans-72" x="1097.789062"/>
     <use xlink:href="#DejaVuSans-63" x="1136.652344"/>
     <use xlink:href="#DejaVuSans-68" x="1191.632812"/>
     <use xlink:href="#DejaVuSans-69" x="1255.011719"/>
     <use xlink:href="#DejaVuSans-74" x="1282.794922"/>
     <use xlink:href="#DejaVuSans-65" x="1322.003906"/>
     <use xlink:href="#DejaVuSans-63" x="1383.527344"/>
     <use xlink:href="#DejaVuSans-74" x="1438.507812"/>
     <use xlink:href="#DejaVuSans-75" x="1477.716797"/>
     <use xlink:href="#DejaVuSans-72" x="1541.095703"/>
     <use xlink:href="#DejaVuSans-65" x="1579.958984"/>
    </g>
   </g>
  </g>
 </g>
 <defs>
  <clipPath id="p954a9dfe67">
   <rect x="126" y="86.4" width="781.2" height="554.4"/>
  </clipPath>
 </defs>
</svg>
